<svg width="320" height="455" viewBox="0 0 320 455" fill="none" xmlns="http://www.w3.org/2000/svg">
<mask id="path-1-inside-1_4_76" fill="white">
<path d="M0 19C0 8.50659 8.50659 0 19 0H301C311.493 0 320 8.50659 320 19V436C320 446.493 311.493 455 301 455H19C8.50659 455 0 446.493 0 436V19Z"/>
</mask>
<path d="M0 19C0 8.50659 8.50659 0 19 0H301C311.493 0 320 8.50659 320 19V436C320 446.493 311.493 455 301 455H19C8.50659 455 0 446.493 0 436V19Z" fill="white"/>
<path d="M19 1H301V-1H19V1ZM319 19V436H321V19H319ZM301 454H19V456H301V454ZM1 436V19H-1V436H1ZM19 454C9.05887 454 1 445.941 1 436H-1C-1 447.046 7.9543 456 19 456V454ZM319 436C319 445.941 310.941 454 301 454V456C312.046 456 321 447.046 321 436H319ZM301 1C310.941 1 319 9.05888 319 19H321C321 7.95431 312.046 -1 301 -1V1ZM19 -1C7.95431 -1 -1 7.9543 -1 19H1C1 9.05887 9.05887 1 19 1V-1Z" fill="#D9D9D9" mask="url(#path-1-inside-1_4_76)"/>
<mask id="path-3-inside-2_4_76" fill="white">
<path d="M24 388C24 383.582 27.5817 380 32 380H288C292.418 380 296 383.582 296 388V412C296 416.418 292.418 420 288 420H32C27.5817 420 24 416.418 24 412V388Z"/>
</mask>
<path d="M24 388C24 383.582 27.5817 380 32 380H288C292.418 380 296 383.582 296 388V412C296 416.418 292.418 420 288 420H32C27.5817 420 24 416.418 24 412V388Z" fill="#2C2C2C"/>
<path d="M32 381H288V379H32V381ZM295 388V412H297V388H295ZM288 419H32V421H288V419ZM25 412V388H23V412H25ZM32 419C28.134 419 25 415.866 25 412H23C23 416.971 27.0294 421 32 421V419ZM295 412C295 415.866 291.866 419 288 419V421C292.971 421 297 416.971 297 412H295ZM288 381C291.866 381 295 384.134 295 388H297C297 383.029 292.971 379 288 379V381ZM32 379C27.0294 379 23 383.029 23 388H25C25 384.134 28.134 381 32 381V379Z" fill="#2C2C2C" mask="url(#path-3-inside-2_4_76)"/>
<path d="M129.909 406V394.364H133.841C134.75 394.364 135.496 394.519 136.08 394.83C136.663 395.136 137.095 395.559 137.375 396.097C137.655 396.634 137.795 397.246 137.795 397.932C137.795 398.617 137.655 399.225 137.375 399.756C137.095 400.286 136.665 400.703 136.085 401.006C135.506 401.305 134.765 401.455 133.864 401.455H130.682V400.182H133.818C134.439 400.182 134.939 400.091 135.318 399.909C135.701 399.727 135.977 399.47 136.148 399.136C136.322 398.799 136.409 398.398 136.409 397.932C136.409 397.466 136.322 397.059 136.148 396.71C135.973 396.362 135.695 396.093 135.312 395.903C134.93 395.71 134.424 395.614 133.795 395.614H131.318V406H129.909ZM135.386 400.773L138.25 406H136.614L133.795 400.773H135.386ZM143.527 406.182C142.686 406.182 141.961 405.996 141.351 405.625C140.745 405.25 140.277 404.727 139.947 404.057C139.622 403.383 139.459 402.598 139.459 401.705C139.459 400.811 139.622 400.023 139.947 399.341C140.277 398.655 140.735 398.121 141.322 397.739C141.913 397.352 142.603 397.159 143.391 397.159C143.845 397.159 144.294 397.235 144.737 397.386C145.18 397.538 145.584 397.784 145.947 398.125C146.311 398.462 146.601 398.909 146.817 399.466C147.033 400.023 147.141 400.708 147.141 401.523V402.091H140.413V400.932H145.777C145.777 400.439 145.679 400 145.482 399.614C145.288 399.227 145.012 398.922 144.652 398.699C144.296 398.475 143.875 398.364 143.391 398.364C142.857 398.364 142.394 398.496 142.004 398.761C141.618 399.023 141.321 399.364 141.112 399.784C140.904 400.205 140.8 400.655 140.8 401.136V401.909C140.8 402.568 140.913 403.127 141.141 403.585C141.372 404.04 141.692 404.386 142.101 404.625C142.51 404.86 142.985 404.977 143.527 404.977C143.879 404.977 144.197 404.928 144.482 404.83C144.769 404.727 145.018 404.576 145.226 404.375C145.434 404.17 145.595 403.917 145.709 403.614L147.004 403.977C146.868 404.417 146.639 404.803 146.317 405.136C145.995 405.466 145.597 405.723 145.124 405.909C144.65 406.091 144.118 406.182 143.527 406.182ZM152.703 409.455C152.055 409.455 151.499 409.371 151.033 409.205C150.567 409.042 150.179 408.826 149.868 408.557C149.561 408.292 149.317 408.008 149.135 407.705L150.203 406.955C150.324 407.114 150.478 407.295 150.663 407.5C150.849 407.708 151.103 407.888 151.425 408.04C151.75 408.195 152.177 408.273 152.703 408.273C153.408 408.273 153.989 408.102 154.447 407.761C154.906 407.42 155.135 406.886 155.135 406.159V404.386H155.021C154.923 404.545 154.783 404.742 154.601 404.977C154.423 405.208 154.165 405.415 153.828 405.597C153.495 405.775 153.044 405.864 152.476 405.864C151.771 405.864 151.139 405.697 150.578 405.364C150.021 405.03 149.58 404.545 149.254 403.909C148.932 403.273 148.771 402.5 148.771 401.591C148.771 400.697 148.929 399.919 149.243 399.256C149.557 398.589 149.995 398.074 150.555 397.71C151.116 397.343 151.764 397.159 152.499 397.159C153.067 397.159 153.518 397.254 153.851 397.443C154.188 397.629 154.446 397.841 154.624 398.08C154.805 398.314 154.946 398.508 155.044 398.659H155.18V397.273H156.476V406.25C156.476 407 156.305 407.61 155.964 408.08C155.627 408.553 155.173 408.9 154.601 409.119C154.033 409.343 153.4 409.455 152.703 409.455ZM152.658 404.659C153.196 404.659 153.65 404.536 154.021 404.29C154.393 404.044 154.675 403.689 154.868 403.227C155.061 402.765 155.158 402.212 155.158 401.568C155.158 400.939 155.063 400.384 154.874 399.903C154.684 399.422 154.404 399.045 154.033 398.773C153.661 398.5 153.203 398.364 152.658 398.364C152.089 398.364 151.616 398.508 151.237 398.795C150.862 399.083 150.58 399.47 150.391 399.955C150.205 400.439 150.112 400.977 150.112 401.568C150.112 402.174 150.207 402.71 150.396 403.176C150.589 403.638 150.874 404.002 151.249 404.267C151.627 404.528 152.097 404.659 152.658 404.659ZM158.93 406V397.273H160.271V406H158.93ZM159.612 395.818C159.351 395.818 159.125 395.729 158.936 395.551C158.75 395.373 158.658 395.159 158.658 394.909C158.658 394.659 158.75 394.445 158.936 394.267C159.125 394.089 159.351 394 159.612 394C159.874 394 160.097 394.089 160.283 394.267C160.472 394.445 160.567 394.659 160.567 394.909C160.567 395.159 160.472 395.373 160.283 395.551C160.097 395.729 159.874 395.818 159.612 395.818ZM168.909 399.227L167.705 399.568C167.629 399.367 167.517 399.172 167.369 398.983C167.225 398.79 167.028 398.631 166.778 398.506C166.528 398.381 166.208 398.318 165.818 398.318C165.284 398.318 164.839 398.441 164.483 398.688C164.131 398.93 163.955 399.239 163.955 399.614C163.955 399.947 164.076 400.21 164.318 400.403C164.561 400.597 164.939 400.758 165.455 400.886L166.75 401.205C167.53 401.394 168.112 401.684 168.494 402.074C168.877 402.46 169.068 402.958 169.068 403.568C169.068 404.068 168.924 404.515 168.636 404.909C168.352 405.303 167.955 405.614 167.443 405.841C166.932 406.068 166.337 406.182 165.659 406.182C164.769 406.182 164.032 405.989 163.449 405.602C162.866 405.216 162.496 404.652 162.341 403.909L163.614 403.591C163.735 404.061 163.964 404.413 164.301 404.648C164.642 404.883 165.087 405 165.636 405C166.261 405 166.758 404.867 167.125 404.602C167.496 404.333 167.682 404.011 167.682 403.636C167.682 403.333 167.576 403.08 167.364 402.875C167.152 402.667 166.826 402.511 166.386 402.409L164.932 402.068C164.133 401.879 163.545 401.585 163.17 401.188C162.799 400.786 162.614 400.284 162.614 399.682C162.614 399.189 162.752 398.754 163.028 398.375C163.309 397.996 163.689 397.699 164.17 397.483C164.655 397.267 165.205 397.159 165.818 397.159C166.682 397.159 167.36 397.348 167.852 397.727C168.348 398.106 168.701 398.606 168.909 399.227ZM174.882 397.273V398.409H170.359V397.273H174.882ZM171.678 395.182H173.018V403.5C173.018 403.879 173.073 404.163 173.183 404.352C173.297 404.538 173.441 404.663 173.615 404.727C173.793 404.788 173.981 404.818 174.178 404.818C174.325 404.818 174.446 404.811 174.541 404.795C174.636 404.777 174.712 404.761 174.768 404.75L175.041 405.955C174.95 405.989 174.823 406.023 174.661 406.057C174.498 406.095 174.291 406.114 174.041 406.114C173.662 406.114 173.291 406.032 172.928 405.869C172.568 405.706 172.268 405.458 172.03 405.125C171.795 404.792 171.678 404.371 171.678 403.864V395.182ZM180.464 406.182C179.624 406.182 178.898 405.996 178.288 405.625C177.682 405.25 177.214 404.727 176.885 404.057C176.559 403.383 176.396 402.598 176.396 401.705C176.396 400.811 176.559 400.023 176.885 399.341C177.214 398.655 177.673 398.121 178.26 397.739C178.851 397.352 179.54 397.159 180.328 397.159C180.783 397.159 181.232 397.235 181.675 397.386C182.118 397.538 182.521 397.784 182.885 398.125C183.249 398.462 183.538 398.909 183.754 399.466C183.97 400.023 184.078 400.708 184.078 401.523V402.091H177.351V400.932H182.714C182.714 400.439 182.616 400 182.419 399.614C182.226 399.227 181.949 398.922 181.589 398.699C181.233 398.475 180.813 398.364 180.328 398.364C179.794 398.364 179.332 398.496 178.942 398.761C178.555 399.023 178.258 399.364 178.05 399.784C177.841 400.205 177.737 400.655 177.737 401.136V401.909C177.737 402.568 177.851 403.127 178.078 403.585C178.309 404.04 178.629 404.386 179.038 404.625C179.447 404.86 179.923 404.977 180.464 404.977C180.817 404.977 181.135 404.928 181.419 404.83C181.707 404.727 181.955 404.576 182.163 404.375C182.372 404.17 182.533 403.917 182.646 403.614L183.942 403.977C183.805 404.417 183.576 404.803 183.254 405.136C182.932 405.466 182.535 405.723 182.061 405.909C181.588 406.091 181.055 406.182 180.464 406.182ZM186.118 406V397.273H187.413V398.591H187.504C187.663 398.159 187.951 397.809 188.368 397.54C188.785 397.271 189.254 397.136 189.777 397.136C189.875 397.136 189.999 397.138 190.146 397.142C190.294 397.146 190.406 397.152 190.482 397.159V398.523C190.436 398.511 190.332 398.494 190.169 398.472C190.01 398.445 189.841 398.432 189.663 398.432C189.239 398.432 188.86 398.521 188.527 398.699C188.197 398.873 187.936 399.116 187.743 399.426C187.554 399.733 187.459 400.083 187.459 400.477V406H186.118Z" fill="#F5F5F5"/>
<path d="M33.0455 23.3636H34.4545V31.0682C34.4545 31.8636 34.267 32.5739 33.892 33.1989C33.5208 33.8201 32.9962 34.3106 32.3182 34.6705C31.6402 35.0265 30.8447 35.2045 29.9318 35.2045C29.0189 35.2045 28.2235 35.0265 27.5455 34.6705C26.8674 34.3106 26.3409 33.8201 25.9659 33.1989C25.5947 32.5739 25.4091 31.8636 25.4091 31.0682V23.3636H26.8182V30.9545C26.8182 31.5227 26.9432 32.0284 27.1932 32.4716C27.4432 32.911 27.7992 33.2576 28.2614 33.5114C28.7273 33.7614 29.2841 33.8864 29.9318 33.8864C30.5795 33.8864 31.1364 33.7614 31.6023 33.5114C32.0682 33.2576 32.4242 32.911 32.6705 32.4716C32.9205 32.0284 33.0455 31.5227 33.0455 30.9545V23.3636ZM43.2685 28.2273L42.0639 28.5682C41.9882 28.3674 41.8764 28.1723 41.7287 27.983C41.5848 27.7898 41.3878 27.6307 41.1378 27.5057C40.8878 27.3807 40.5677 27.3182 40.1776 27.3182C39.6435 27.3182 39.1984 27.4413 38.8423 27.6875C38.4901 27.9299 38.3139 28.2386 38.3139 28.6136C38.3139 28.947 38.4351 29.2102 38.6776 29.4034C38.92 29.5966 39.2988 29.7576 39.8139 29.8864L41.1094 30.2045C41.8897 30.3939 42.4711 30.6837 42.8537 31.0739C43.2363 31.4602 43.4276 31.9583 43.4276 32.5682C43.4276 33.0682 43.2836 33.5152 42.9957 33.9091C42.7116 34.303 42.3139 34.6136 41.8026 34.8409C41.2912 35.0682 40.6965 35.1818 40.0185 35.1818C39.1283 35.1818 38.3916 34.9886 37.8082 34.6023C37.2249 34.2159 36.8556 33.6515 36.7003 32.9091L37.973 32.5909C38.0942 33.0606 38.3234 33.4129 38.6605 33.6477C39.0014 33.8826 39.4465 34 39.9957 34C40.6207 34 41.117 33.8674 41.4844 33.6023C41.8556 33.3333 42.0412 33.0114 42.0412 32.6364C42.0412 32.3333 41.9351 32.0795 41.723 31.875C41.5109 31.6667 41.1851 31.5114 40.7457 31.4091L39.2912 31.0682C38.492 30.8788 37.9048 30.5852 37.5298 30.1875C37.1586 29.786 36.973 29.2841 36.973 28.6818C36.973 28.1894 37.1113 27.7538 37.3878 27.375C37.6681 26.9962 38.0488 26.6989 38.5298 26.483C39.0147 26.267 39.5639 26.1591 40.1776 26.1591C41.0412 26.1591 41.7192 26.3485 42.2116 26.7273C42.7079 27.1061 43.0601 27.6061 43.2685 28.2273ZM49.1051 35.1818C48.2642 35.1818 47.5388 34.9962 46.929 34.625C46.3229 34.25 45.8551 33.7273 45.5256 33.0568C45.1998 32.3826 45.0369 31.5985 45.0369 30.7045C45.0369 29.8106 45.1998 29.0227 45.5256 28.3409C45.8551 27.6553 46.3134 27.1212 46.9006 26.7386C47.4915 26.3523 48.1809 26.1591 48.9688 26.1591C49.4233 26.1591 49.8722 26.2348 50.3153 26.3864C50.7585 26.5379 51.1619 26.7841 51.5256 27.125C51.8892 27.4621 52.179 27.9091 52.3949 28.4659C52.6108 29.0227 52.7188 29.7083 52.7188 30.5227V31.0909H45.9915V29.9318H51.3551C51.3551 29.4394 51.2566 29 51.0597 28.6136C50.8665 28.2273 50.59 27.9223 50.2301 27.6989C49.8741 27.4754 49.4536 27.3636 48.9688 27.3636C48.4347 27.3636 47.9725 27.4962 47.5824 27.7614C47.196 28.0227 46.8987 28.3636 46.6903 28.7841C46.482 29.2045 46.3778 29.6553 46.3778 30.1364V30.9091C46.3778 31.5682 46.4915 32.1269 46.7188 32.5852C46.9498 33.0398 47.2699 33.3864 47.679 33.625C48.0881 33.8598 48.5634 33.9773 49.1051 33.9773C49.4574 33.9773 49.7756 33.928 50.0597 33.8295C50.3475 33.7273 50.5956 33.5758 50.804 33.375C51.0123 33.1705 51.1733 32.9167 51.2869 32.6136L52.5824 32.9773C52.446 33.4167 52.2169 33.803 51.8949 34.1364C51.5729 34.4659 51.1752 34.7235 50.7017 34.9091C50.2282 35.0909 49.696 35.1818 49.1051 35.1818ZM54.7585 35V26.2727H56.054V27.5909H56.1449C56.304 27.1591 56.5919 26.8087 57.0085 26.5398C57.4252 26.2708 57.8949 26.1364 58.4176 26.1364C58.5161 26.1364 58.6392 26.1383 58.7869 26.142C58.9347 26.1458 59.0464 26.1515 59.1222 26.1591V27.5227C59.0767 27.5114 58.9725 27.4943 58.8097 27.4716C58.6506 27.4451 58.482 27.4318 58.304 27.4318C57.8797 27.4318 57.5009 27.5208 57.1676 27.6989C56.8381 27.8731 56.5767 28.1155 56.3835 28.4261C56.1941 28.733 56.0994 29.0833 56.0994 29.4773V35H54.7585ZM62.0526 29.75V35H60.7116V26.2727H62.0071V27.6364H62.1207C62.3253 27.1932 62.6359 26.8371 63.0526 26.5682C63.4692 26.2955 64.0071 26.1591 64.6662 26.1591C65.2571 26.1591 65.7741 26.2803 66.2173 26.5227C66.6605 26.7614 67.0052 27.125 67.2514 27.6136C67.4976 28.0985 67.6207 28.7121 67.6207 29.4545V35H66.2798V29.5455C66.2798 28.8598 66.1018 28.3258 65.7457 27.9432C65.3897 27.5568 64.901 27.3636 64.2798 27.3636C63.8518 27.3636 63.4692 27.4564 63.1321 27.642C62.7988 27.8277 62.5355 28.0985 62.3423 28.4545C62.1491 28.8106 62.0526 29.2424 62.0526 29.75ZM72.6392 35.2045C72.0862 35.2045 71.5843 35.1004 71.1335 34.892C70.6828 34.6799 70.3248 34.375 70.0597 33.9773C69.7945 33.5758 69.6619 33.0909 69.6619 32.5227C69.6619 32.0227 69.7604 31.6174 69.9574 31.3068C70.1544 30.9924 70.4176 30.7462 70.7472 30.5682C71.0767 30.3902 71.4403 30.2576 71.8381 30.1705C72.2396 30.0795 72.643 30.0076 73.0483 29.9545C73.5786 29.8864 74.0085 29.8352 74.3381 29.8011C74.6714 29.7633 74.9138 29.7008 75.0653 29.6136C75.2206 29.5265 75.2983 29.375 75.2983 29.1591V29.1136C75.2983 28.553 75.1449 28.1174 74.8381 27.8068C74.535 27.4962 74.0748 27.3409 73.4574 27.3409C72.8172 27.3409 72.3153 27.4811 71.9517 27.7614C71.5881 28.0417 71.3324 28.3409 71.1847 28.6591L69.9119 28.2045C70.1392 27.6742 70.4422 27.2614 70.821 26.9659C71.2036 26.6667 71.6203 26.4583 72.071 26.3409C72.5256 26.2197 72.9725 26.1591 73.4119 26.1591C73.6922 26.1591 74.0142 26.1932 74.3778 26.2614C74.7453 26.3258 75.0994 26.4602 75.4403 26.6648C75.785 26.8693 76.071 27.178 76.2983 27.5909C76.5256 28.0038 76.6392 28.5568 76.6392 29.25V35H75.2983V33.8182H75.2301C75.1392 34.0076 74.9877 34.2102 74.7756 34.4261C74.5634 34.642 74.2813 34.8258 73.929 34.9773C73.5767 35.1288 73.1468 35.2045 72.6392 35.2045ZM72.8438 34C73.3741 34 73.821 33.8958 74.1847 33.6875C74.5521 33.4792 74.8286 33.2102 75.0142 32.8807C75.2036 32.5511 75.2983 32.2045 75.2983 31.8409V30.6136C75.2415 30.6818 75.1165 30.7443 74.9233 30.8011C74.7339 30.8542 74.5142 30.9015 74.2642 30.9432C74.018 30.9811 73.7775 31.0152 73.5426 31.0455C73.3116 31.072 73.1241 31.0947 72.9801 31.1136C72.6316 31.1591 72.3059 31.233 72.0028 31.3352C71.7036 31.4337 71.4612 31.5833 71.2756 31.7841C71.0938 31.9811 71.0028 32.25 71.0028 32.5909C71.0028 33.0568 71.1752 33.4091 71.5199 33.6477C71.8684 33.8826 72.3097 34 72.8438 34ZM79.0866 35V26.2727H80.3821V27.6364H80.4957C80.6776 27.1705 80.9711 26.8087 81.3764 26.5511C81.7817 26.2898 82.2685 26.1591 82.8366 26.1591C83.4124 26.1591 83.8916 26.2898 84.2741 26.5511C84.6605 26.8087 84.9616 27.1705 85.1776 27.6364H85.2685C85.492 27.1856 85.8272 26.8277 86.2741 26.5625C86.7211 26.2936 87.2571 26.1591 87.8821 26.1591C88.6624 26.1591 89.3007 26.4034 89.7969 26.892C90.2931 27.3769 90.5412 28.1326 90.5412 29.1591V35H89.2003V29.1591C89.2003 28.5152 89.0241 28.0549 88.6719 27.7784C88.3196 27.5019 87.9048 27.3636 87.4276 27.3636C86.8139 27.3636 86.3385 27.5492 86.0014 27.9205C85.6643 28.2879 85.4957 28.7538 85.4957 29.3182V35H84.1321V29.0227C84.1321 28.5265 83.9711 28.1269 83.6491 27.8239C83.3272 27.517 82.9124 27.3636 82.4048 27.3636C82.0563 27.3636 81.7306 27.4564 81.4276 27.642C81.1283 27.8277 80.8859 28.0852 80.7003 28.4148C80.5185 28.7405 80.4276 29.1174 80.4276 29.5455V35H79.0866ZM96.652 35.1818C95.8111 35.1818 95.0857 34.9962 94.4759 34.625C93.8698 34.25 93.402 33.7273 93.0724 33.0568C92.7467 32.3826 92.5838 31.5985 92.5838 30.7045C92.5838 29.8106 92.7467 29.0227 93.0724 28.3409C93.402 27.6553 93.8603 27.1212 94.4474 26.7386C95.0384 26.3523 95.7277 26.1591 96.5156 26.1591C96.9702 26.1591 97.419 26.2348 97.8622 26.3864C98.3054 26.5379 98.7088 26.7841 99.0724 27.125C99.4361 27.4621 99.7259 27.9091 99.9418 28.4659C100.158 29.0227 100.266 29.7083 100.266 30.5227V31.0909H93.5384V29.9318H98.902C98.902 29.4394 98.8035 29 98.6065 28.6136C98.4134 28.2273 98.1368 27.9223 97.777 27.6989C97.4209 27.4754 97.0005 27.3636 96.5156 27.3636C95.9815 27.3636 95.5194 27.4962 95.1293 27.7614C94.7429 28.0227 94.4455 28.3636 94.2372 28.7841C94.0289 29.2045 93.9247 29.6553 93.9247 30.1364V30.9091C93.9247 31.5682 94.0384 32.1269 94.2656 32.5852C94.4967 33.0398 94.8168 33.3864 95.2259 33.625C95.6349 33.8598 96.1103 33.9773 96.652 33.9773C97.0043 33.9773 97.3224 33.928 97.6065 33.8295C97.8944 33.7273 98.1425 33.5758 98.3509 33.375C98.5592 33.1705 98.7202 32.9167 98.8338 32.6136L100.129 32.9773C99.9929 33.4167 99.7637 33.803 99.4418 34.1364C99.1198 34.4659 98.7221 34.7235 98.2486 34.9091C97.7751 35.0909 97.2429 35.1818 96.652 35.1818ZM103.283 35.0909C103.002 35.0909 102.762 34.9905 102.561 34.7898C102.36 34.589 102.26 34.3485 102.26 34.0682C102.26 33.7879 102.36 33.5473 102.561 33.3466C102.762 33.1458 103.002 33.0455 103.283 33.0455C103.563 33.0455 103.804 33.1458 104.004 33.3466C104.205 33.5473 104.305 33.7879 104.305 34.0682C104.305 34.2538 104.258 34.4242 104.163 34.5795C104.072 34.7348 103.949 34.8598 103.794 34.9545C103.643 35.0455 103.472 35.0909 103.283 35.0909ZM103.283 28.6136C103.002 28.6136 102.762 28.5133 102.561 28.3125C102.36 28.1117 102.26 27.8712 102.26 27.5909C102.26 27.3106 102.36 27.0701 102.561 26.8693C102.762 26.6686 103.002 26.5682 103.283 26.5682C103.563 26.5682 103.804 26.6686 104.004 26.8693C104.205 27.0701 104.305 27.3106 104.305 27.5909C104.305 27.7765 104.258 27.947 104.163 28.1023C104.072 28.2576 103.949 28.3826 103.794 28.4773C103.643 28.5682 103.472 28.6136 103.283 28.6136Z" fill="#1E1E1E"/>
<path d="M24 56C24 51.5817 27.5817 48 32 48H288C292.418 48 296 51.5817 296 56V80C296 84.4183 292.418 88 288 88H32C27.5817 88 24 84.4183 24 80V56Z" fill="white"/>
<path d="M32 48.5H288V47.5H32V48.5ZM295.5 56V80H296.5V56H295.5ZM288 87.5H32V88.5H288V87.5ZM24.5 80V56H23.5V80H24.5ZM32 87.5C27.8579 87.5 24.5 84.1421 24.5 80H23.5C23.5 84.6944 27.3056 88.5 32 88.5V87.5ZM295.5 80C295.5 84.1421 292.142 87.5 288 87.5V88.5C292.694 88.5 296.5 84.6944 296.5 80H295.5ZM288 48.5C292.142 48.5 295.5 51.8579 295.5 56H296.5C296.5 51.3056 292.694 47.5 288 47.5V48.5ZM32 47.5C27.3056 47.5 23.5 51.3056 23.5 56H24.5C24.5 51.8579 27.8579 48.5 32 48.5V47.5Z" fill="#D9D9D9"/>
<path d="M25.4091 124V112.364H32.4318V113.614H26.8182V117.545H32.0682V118.795H26.8182V122.75H32.5227V124H25.4091ZM34.7898 124V115.273H36.0852V116.636H36.1989C36.3807 116.17 36.6742 115.809 37.0795 115.551C37.4848 115.29 37.9716 115.159 38.5398 115.159C39.1155 115.159 39.5947 115.29 39.9773 115.551C40.3636 115.809 40.6648 116.17 40.8807 116.636H40.9716C41.1951 116.186 41.5303 115.828 41.9773 115.562C42.4242 115.294 42.9602 115.159 43.5852 115.159C44.3655 115.159 45.0038 115.403 45.5 115.892C45.9962 116.377 46.2443 117.133 46.2443 118.159V124H44.9034V118.159C44.9034 117.515 44.7273 117.055 44.375 116.778C44.0227 116.502 43.608 116.364 43.1307 116.364C42.517 116.364 42.0417 116.549 41.7045 116.92C41.3674 117.288 41.1989 117.754 41.1989 118.318V124H39.8352V118.023C39.8352 117.527 39.6742 117.127 39.3523 116.824C39.0303 116.517 38.6155 116.364 38.108 116.364C37.7595 116.364 37.4337 116.456 37.1307 116.642C36.8314 116.828 36.589 117.085 36.4034 117.415C36.2216 117.741 36.1307 118.117 36.1307 118.545V124H34.7898ZM51.2642 124.205C50.7112 124.205 50.2093 124.1 49.7585 123.892C49.3078 123.68 48.9498 123.375 48.6847 122.977C48.4195 122.576 48.2869 122.091 48.2869 121.523C48.2869 121.023 48.3854 120.617 48.5824 120.307C48.7794 119.992 49.0426 119.746 49.3722 119.568C49.7017 119.39 50.0653 119.258 50.4631 119.17C50.8646 119.08 51.268 119.008 51.6733 118.955C52.2036 118.886 52.6335 118.835 52.9631 118.801C53.2964 118.763 53.5388 118.701 53.6903 118.614C53.8456 118.527 53.9233 118.375 53.9233 118.159V118.114C53.9233 117.553 53.7699 117.117 53.4631 116.807C53.16 116.496 52.6998 116.341 52.0824 116.341C51.4422 116.341 50.9403 116.481 50.5767 116.761C50.2131 117.042 49.9574 117.341 49.8097 117.659L48.5369 117.205C48.7642 116.674 49.0672 116.261 49.446 115.966C49.8286 115.667 50.2453 115.458 50.696 115.341C51.1506 115.22 51.5975 115.159 52.0369 115.159C52.3172 115.159 52.6392 115.193 53.0028 115.261C53.3703 115.326 53.7244 115.46 54.0653 115.665C54.41 115.869 54.696 116.178 54.9233 116.591C55.1506 117.004 55.2642 117.557 55.2642 118.25V124H53.9233V122.818H53.8551C53.7642 123.008 53.6127 123.21 53.4006 123.426C53.1884 123.642 52.9063 123.826 52.554 123.977C52.2017 124.129 51.7718 124.205 51.2642 124.205ZM51.4688 123C51.9991 123 52.446 122.896 52.8097 122.688C53.1771 122.479 53.4536 122.21 53.6392 121.881C53.8286 121.551 53.9233 121.205 53.9233 120.841V119.614C53.8665 119.682 53.7415 119.744 53.5483 119.801C53.3589 119.854 53.1392 119.902 52.8892 119.943C52.643 119.981 52.4025 120.015 52.1676 120.045C51.9366 120.072 51.7491 120.095 51.6051 120.114C51.2566 120.159 50.9309 120.233 50.6278 120.335C50.3286 120.434 50.0862 120.583 49.9006 120.784C49.7188 120.981 49.6278 121.25 49.6278 121.591C49.6278 122.057 49.8002 122.409 50.1449 122.648C50.4934 122.883 50.9347 123 51.4688 123ZM57.7116 124V115.273H59.0526V124H57.7116ZM58.3935 113.818C58.1321 113.818 57.9067 113.729 57.7173 113.551C57.5317 113.373 57.4389 113.159 57.4389 112.909C57.4389 112.659 57.5317 112.445 57.7173 112.267C57.9067 112.089 58.1321 112 58.3935 112C58.6548 112 58.8783 112.089 59.0639 112.267C59.2533 112.445 59.348 112.659 59.348 112.909C59.348 113.159 59.2533 113.373 59.0639 113.551C58.8783 113.729 58.6548 113.818 58.3935 113.818ZM62.8494 112.364V124H61.5085V112.364H62.8494ZM66.2827 124.091C66.0024 124.091 65.7618 123.991 65.5611 123.79C65.3603 123.589 65.2599 123.348 65.2599 123.068C65.2599 122.788 65.3603 122.547 65.5611 122.347C65.7618 122.146 66.0024 122.045 66.2827 122.045C66.563 122.045 66.8035 122.146 67.0043 122.347C67.205 122.547 67.3054 122.788 67.3054 123.068C67.3054 123.254 67.258 123.424 67.1634 123.58C67.0724 123.735 66.9493 123.86 66.794 123.955C66.6425 124.045 66.4721 124.091 66.2827 124.091ZM66.2827 117.614C66.0024 117.614 65.7618 117.513 65.5611 117.312C65.3603 117.112 65.2599 116.871 65.2599 116.591C65.2599 116.311 65.3603 116.07 65.5611 115.869C65.7618 115.669 66.0024 115.568 66.2827 115.568C66.563 115.568 66.8035 115.669 67.0043 115.869C67.205 116.07 67.3054 116.311 67.3054 116.591C67.3054 116.777 67.258 116.947 67.1634 117.102C67.0724 117.258 66.9493 117.383 66.794 117.477C66.6425 117.568 66.4721 117.614 66.2827 117.614Z" fill="#1E1E1E"/>
<path d="M24 145C24 140.582 27.5817 137 32 137H288C292.418 137 296 140.582 296 145V169C296 173.418 292.418 177 288 177H32C27.5817 177 24 173.418 24 169V145Z" fill="white"/>
<path d="M32 137.5H288V136.5H32V137.5ZM295.5 145V169H296.5V145H295.5ZM288 176.5H32V177.5H288V176.5ZM24.5 169V145H23.5V169H24.5ZM32 176.5C27.8579 176.5 24.5 173.142 24.5 169H23.5C23.5 173.694 27.3056 177.5 32 177.5V176.5ZM295.5 169C295.5 173.142 292.142 176.5 288 176.5V177.5C292.694 177.5 296.5 173.694 296.5 169H295.5ZM288 137.5C292.142 137.5 295.5 140.858 295.5 145H296.5C296.5 140.306 292.694 136.5 288 136.5V137.5ZM32 136.5C27.3056 136.5 23.5 140.306 23.5 145H24.5C24.5 140.858 27.8579 137.5 32 137.5V136.5Z" fill="#D9D9D9"/>
<path d="M25.4091 213V201.364H29.3409C30.2538 201.364 31 201.528 31.5795 201.858C32.1629 202.184 32.5947 202.625 32.875 203.182C33.1553 203.739 33.2955 204.36 33.2955 205.045C33.2955 205.731 33.1553 206.354 32.875 206.915C32.5985 207.475 32.1705 207.922 31.5909 208.256C31.0114 208.585 30.2689 208.75 29.3636 208.75H26.5455V207.5H29.3182C29.9432 207.5 30.4451 207.392 30.8239 207.176C31.2027 206.96 31.4773 206.669 31.6477 206.301C31.822 205.93 31.9091 205.511 31.9091 205.045C31.9091 204.58 31.822 204.163 31.6477 203.795C31.4773 203.428 31.2008 203.14 30.8182 202.932C30.4356 202.72 29.928 202.614 29.2955 202.614H26.8182V213H25.4091ZM37.9517 213.205C37.3987 213.205 36.8968 213.1 36.446 212.892C35.9953 212.68 35.6373 212.375 35.3722 211.977C35.107 211.576 34.9744 211.091 34.9744 210.523C34.9744 210.023 35.0729 209.617 35.2699 209.307C35.4669 208.992 35.7301 208.746 36.0597 208.568C36.3892 208.39 36.7528 208.258 37.1506 208.17C37.5521 208.08 37.9555 208.008 38.3608 207.955C38.8911 207.886 39.321 207.835 39.6506 207.801C39.9839 207.763 40.2263 207.701 40.3778 207.614C40.5331 207.527 40.6108 207.375 40.6108 207.159V207.114C40.6108 206.553 40.4574 206.117 40.1506 205.807C39.8475 205.496 39.3873 205.341 38.7699 205.341C38.1297 205.341 37.6278 205.481 37.2642 205.761C36.9006 206.042 36.6449 206.341 36.4972 206.659L35.2244 206.205C35.4517 205.674 35.7547 205.261 36.1335 204.966C36.5161 204.667 36.9328 204.458 37.3835 204.341C37.8381 204.22 38.285 204.159 38.7244 204.159C39.0047 204.159 39.3267 204.193 39.6903 204.261C40.0578 204.326 40.4119 204.46 40.7528 204.665C41.0975 204.869 41.3835 205.178 41.6108 205.591C41.8381 206.004 41.9517 206.557 41.9517 207.25V213H40.6108V211.818H40.5426C40.4517 212.008 40.3002 212.21 40.0881 212.426C39.8759 212.642 39.5938 212.826 39.2415 212.977C38.8892 213.129 38.4593 213.205 37.9517 213.205ZM38.1562 212C38.6866 212 39.1335 211.896 39.4972 211.688C39.8646 211.479 40.1411 211.21 40.3267 210.881C40.5161 210.551 40.6108 210.205 40.6108 209.841V208.614C40.554 208.682 40.429 208.744 40.2358 208.801C40.0464 208.854 39.8267 208.902 39.5767 208.943C39.3305 208.981 39.09 209.015 38.8551 209.045C38.6241 209.072 38.4366 209.095 38.2926 209.114C37.9441 209.159 37.6184 209.233 37.3153 209.335C37.0161 209.434 36.7737 209.583 36.5881 209.784C36.4063 209.981 36.3153 210.25 36.3153 210.591C36.3153 211.057 36.4877 211.409 36.8324 211.648C37.1809 211.883 37.6222 212 38.1562 212ZM50.581 206.227L49.3764 206.568C49.3007 206.367 49.1889 206.172 49.0412 205.983C48.8973 205.79 48.7003 205.631 48.4503 205.506C48.2003 205.381 47.8802 205.318 47.4901 205.318C46.956 205.318 46.5109 205.441 46.1548 205.688C45.8026 205.93 45.6264 206.239 45.6264 206.614C45.6264 206.947 45.7476 207.21 45.9901 207.403C46.2325 207.597 46.6113 207.758 47.1264 207.886L48.4219 208.205C49.2022 208.394 49.7836 208.684 50.1662 209.074C50.5488 209.46 50.7401 209.958 50.7401 210.568C50.7401 211.068 50.5961 211.515 50.3082 211.909C50.0241 212.303 49.6264 212.614 49.1151 212.841C48.6037 213.068 48.009 213.182 47.331 213.182C46.4408 213.182 45.7041 212.989 45.1207 212.602C44.5374 212.216 44.1681 211.652 44.0128 210.909L45.2855 210.591C45.4067 211.061 45.6359 211.413 45.973 211.648C46.3139 211.883 46.759 212 47.3082 212C47.9332 212 48.4295 211.867 48.7969 211.602C49.1681 211.333 49.3537 211.011 49.3537 210.636C49.3537 210.333 49.2476 210.08 49.0355 209.875C48.8234 209.667 48.4976 209.511 48.0582 209.409L46.6037 209.068C45.8045 208.879 45.2173 208.585 44.8423 208.188C44.4711 207.786 44.2855 207.284 44.2855 206.682C44.2855 206.189 44.4238 205.754 44.7003 205.375C44.9806 204.996 45.3613 204.699 45.8423 204.483C46.3272 204.267 46.8764 204.159 47.4901 204.159C48.3537 204.159 49.0317 204.348 49.5241 204.727C50.0204 205.106 50.3726 205.606 50.581 206.227ZM58.9403 206.227L57.7358 206.568C57.66 206.367 57.5483 206.172 57.4006 205.983C57.2566 205.79 57.0597 205.631 56.8097 205.506C56.5597 205.381 56.2396 205.318 55.8494 205.318C55.3153 205.318 54.8703 205.441 54.5142 205.688C54.1619 205.93 53.9858 206.239 53.9858 206.614C53.9858 206.947 54.107 207.21 54.3494 207.403C54.5919 207.597 54.9706 207.758 55.4858 207.886L56.7812 208.205C57.5616 208.394 58.143 208.684 58.5256 209.074C58.9081 209.46 59.0994 209.958 59.0994 210.568C59.0994 211.068 58.9555 211.515 58.6676 211.909C58.3835 212.303 57.9858 212.614 57.4744 212.841C56.9631 213.068 56.3684 213.182 55.6903 213.182C54.8002 213.182 54.0634 212.989 53.4801 212.602C52.8968 212.216 52.5275 211.652 52.3722 210.909L53.6449 210.591C53.7661 211.061 53.9953 211.413 54.3324 211.648C54.6733 211.883 55.1184 212 55.6676 212C56.2926 212 56.7888 211.867 57.1562 211.602C57.5275 211.333 57.7131 211.011 57.7131 210.636C57.7131 210.333 57.607 210.08 57.3949 209.875C57.1828 209.667 56.857 209.511 56.4176 209.409L54.9631 209.068C54.1638 208.879 53.5767 208.585 53.2017 208.188C52.8305 207.786 52.6449 207.284 52.6449 206.682C52.6449 206.189 52.7831 205.754 53.0597 205.375C53.34 204.996 53.7206 204.699 54.2017 204.483C54.6866 204.267 55.2358 204.159 55.8494 204.159C56.7131 204.159 57.3911 204.348 57.8835 204.727C58.3797 205.106 58.732 205.606 58.9403 206.227ZM63.0952 213L60.4361 204.273H61.8452L63.7315 210.955H63.8224L65.6861 204.273H67.1179L68.9588 210.932H69.0497L70.9361 204.273H72.3452L69.6861 213H68.3679L66.4588 206.295H66.3224L64.4134 213H63.0952ZM77.3665 213.182C76.5786 213.182 75.8873 212.994 75.2926 212.619C74.7017 212.244 74.2396 211.72 73.9062 211.045C73.5767 210.371 73.4119 209.583 73.4119 208.682C73.4119 207.773 73.5767 206.979 73.9062 206.301C74.2396 205.623 74.7017 205.097 75.2926 204.722C75.8873 204.347 76.5786 204.159 77.3665 204.159C78.1544 204.159 78.8438 204.347 79.4347 204.722C80.0294 205.097 80.4915 205.623 80.821 206.301C81.1544 206.979 81.321 207.773 81.321 208.682C81.321 209.583 81.1544 210.371 80.821 211.045C80.4915 211.72 80.0294 212.244 79.4347 212.619C78.8438 212.994 78.1544 213.182 77.3665 213.182ZM77.3665 211.977C77.965 211.977 78.4574 211.824 78.8438 211.517C79.2301 211.21 79.5161 210.807 79.7017 210.307C79.8873 209.807 79.9801 209.265 79.9801 208.682C79.9801 208.098 79.8873 207.555 79.7017 207.051C79.5161 206.547 79.2301 206.14 78.8438 205.83C78.4574 205.519 77.965 205.364 77.3665 205.364C76.768 205.364 76.2756 205.519 75.8892 205.83C75.5028 206.14 75.2169 206.547 75.0312 207.051C74.8456 207.555 74.7528 208.098 74.7528 208.682C74.7528 209.265 74.8456 209.807 75.0312 210.307C75.2169 210.807 75.5028 211.21 75.8892 211.517C76.2756 211.824 76.768 211.977 77.3665 211.977ZM83.3679 213V204.273H84.6634V205.591H84.7543C84.9134 205.159 85.2012 204.809 85.6179 204.54C86.0346 204.271 86.5043 204.136 87.027 204.136C87.1255 204.136 87.2486 204.138 87.3963 204.142C87.544 204.146 87.6558 204.152 87.7315 204.159V205.523C87.6861 205.511 87.5819 205.494 87.419 205.472C87.2599 205.445 87.0914 205.432 86.9134 205.432C86.4891 205.432 86.1103 205.521 85.777 205.699C85.4474 205.873 85.1861 206.116 84.9929 206.426C84.8035 206.733 84.7088 207.083 84.7088 207.477V213H83.3679ZM92.3509 213.182C91.6236 213.182 90.9815 212.998 90.4247 212.631C89.8679 212.259 89.4323 211.737 89.1179 211.062C88.8035 210.384 88.6463 209.583 88.6463 208.659C88.6463 207.742 88.8035 206.947 89.1179 206.273C89.4323 205.598 89.8698 205.078 90.4304 204.71C90.991 204.343 91.6387 204.159 92.3736 204.159C92.9418 204.159 93.3906 204.254 93.7202 204.443C94.0535 204.629 94.3073 204.841 94.4815 205.08C94.6596 205.314 94.7978 205.508 94.8963 205.659H95.0099V201.364H96.3509V213H95.0554V211.659H94.8963C94.7978 211.818 94.6577 212.019 94.4759 212.261C94.294 212.5 94.0346 212.714 93.6974 212.903C93.3603 213.089 92.9115 213.182 92.3509 213.182ZM92.5327 211.977C93.0705 211.977 93.5251 211.837 93.8963 211.557C94.2675 211.273 94.5497 210.881 94.7429 210.381C94.9361 209.877 95.0327 209.295 95.0327 208.636C95.0327 207.985 94.938 207.415 94.7486 206.926C94.5592 206.434 94.2789 206.051 93.9077 205.778C93.5365 205.502 93.0781 205.364 92.5327 205.364C91.9645 205.364 91.491 205.509 91.1122 205.801C90.7372 206.089 90.455 206.481 90.2656 206.977C90.08 207.47 89.9872 208.023 89.9872 208.636C89.9872 209.258 90.0819 209.822 90.2713 210.33C90.4645 210.833 90.7486 211.235 91.1236 211.534C91.5024 211.83 91.9721 211.977 92.5327 211.977Z" fill="#1E1E1E"/>
<path d="M24 234C24 229.582 27.5817 226 32 226H288C292.418 226 296 229.582 296 234V258C296 262.418 292.418 266 288 266H32C27.5817 266 24 262.418 24 258V234Z" fill="white"/>
<path d="M32 226.5H288V225.5H32V226.5ZM295.5 234V258H296.5V234H295.5ZM288 265.5H32V266.5H288V265.5ZM24.5 258V234H23.5V258H24.5ZM32 265.5C27.8579 265.5 24.5 262.142 24.5 258H23.5C23.5 262.694 27.3056 266.5 32 266.5V265.5ZM295.5 258C295.5 262.142 292.142 265.5 288 265.5V266.5C292.694 266.5 296.5 262.694 296.5 258H295.5ZM288 226.5C292.142 226.5 295.5 229.858 295.5 234H296.5C296.5 229.306 292.694 225.5 288 225.5V226.5ZM32 225.5C27.3056 225.5 23.5 229.306 23.5 234H24.5C24.5 229.858 27.8579 226.5 32 226.5V225.5Z" fill="#D9D9D9"/>
<path d="M34.7727 294H33.3636C33.2803 293.595 33.1345 293.239 32.9261 292.932C32.7216 292.625 32.4716 292.367 32.1761 292.159C31.8845 291.947 31.5606 291.788 31.2045 291.682C30.8485 291.576 30.4773 291.523 30.0909 291.523C29.3864 291.523 28.7481 291.701 28.1761 292.057C27.608 292.413 27.1553 292.938 26.8182 293.631C26.4848 294.324 26.3182 295.174 26.3182 296.182C26.3182 297.189 26.4848 298.04 26.8182 298.733C27.1553 299.426 27.608 299.951 28.1761 300.307C28.7481 300.663 29.3864 300.841 30.0909 300.841C30.4773 300.841 30.8485 300.788 31.2045 300.682C31.5606 300.576 31.8845 300.419 32.1761 300.21C32.4716 299.998 32.7216 299.739 32.9261 299.432C33.1345 299.121 33.2803 298.765 33.3636 298.364H34.7727C34.6667 298.958 34.4735 299.491 34.1932 299.96C33.9129 300.43 33.5644 300.83 33.1477 301.159C32.7311 301.485 32.2633 301.733 31.7443 301.903C31.2292 302.074 30.678 302.159 30.0909 302.159C29.0985 302.159 28.2159 301.917 27.4432 301.432C26.6705 300.947 26.0625 300.258 25.6193 299.364C25.1761 298.47 24.9545 297.409 24.9545 296.182C24.9545 294.955 25.1761 293.894 25.6193 293C26.0625 292.106 26.6705 291.417 27.4432 290.932C28.2159 290.447 29.0985 290.205 30.0909 290.205C30.678 290.205 31.2292 290.29 31.7443 290.46C32.2633 290.631 32.7311 290.881 33.1477 291.21C33.5644 291.536 33.9129 291.934 34.1932 292.403C34.4735 292.869 34.6667 293.402 34.7727 294ZM40.4134 302.182C39.6255 302.182 38.9342 301.994 38.3395 301.619C37.7486 301.244 37.2865 300.72 36.9531 300.045C36.6236 299.371 36.4588 298.583 36.4588 297.682C36.4588 296.773 36.6236 295.979 36.9531 295.301C37.2865 294.623 37.7486 294.097 38.3395 293.722C38.9342 293.347 39.6255 293.159 40.4134 293.159C41.2012 293.159 41.8906 293.347 42.4815 293.722C43.0762 294.097 43.5384 294.623 43.8679 295.301C44.2012 295.979 44.3679 296.773 44.3679 297.682C44.3679 298.583 44.2012 299.371 43.8679 300.045C43.5384 300.72 43.0762 301.244 42.4815 301.619C41.8906 301.994 41.2012 302.182 40.4134 302.182ZM40.4134 300.977C41.0118 300.977 41.5043 300.824 41.8906 300.517C42.277 300.21 42.563 299.807 42.7486 299.307C42.9342 298.807 43.027 298.265 43.027 297.682C43.027 297.098 42.9342 296.555 42.7486 296.051C42.563 295.547 42.277 295.14 41.8906 294.83C41.5043 294.519 41.0118 294.364 40.4134 294.364C39.8149 294.364 39.3224 294.519 38.9361 294.83C38.5497 295.14 38.2637 295.547 38.0781 296.051C37.8925 296.555 37.7997 297.098 37.7997 297.682C37.7997 298.265 37.8925 298.807 38.0781 299.307C38.2637 299.807 38.5497 300.21 38.9361 300.517C39.3224 300.824 39.8149 300.977 40.4134 300.977ZM47.7557 296.75V302H46.4148V293.273H47.7102V294.636H47.8239C48.0284 294.193 48.339 293.837 48.7557 293.568C49.1723 293.295 49.7102 293.159 50.3693 293.159C50.9602 293.159 51.4773 293.28 51.9205 293.523C52.3636 293.761 52.7083 294.125 52.9545 294.614C53.2008 295.098 53.3239 295.712 53.3239 296.455V302H51.983V296.545C51.983 295.86 51.8049 295.326 51.4489 294.943C51.0928 294.557 50.6042 294.364 49.983 294.364C49.5549 294.364 49.1723 294.456 48.8352 294.642C48.5019 294.828 48.2386 295.098 48.0455 295.455C47.8523 295.811 47.7557 296.242 47.7557 296.75ZM59.6605 293.273V294.409H54.956V293.273H59.6605ZM56.3651 302V292.068C56.3651 291.568 56.4825 291.152 56.7173 290.818C56.9522 290.485 57.2571 290.235 57.6321 290.068C58.0071 289.902 58.4029 289.818 58.8196 289.818C59.1491 289.818 59.4181 289.845 59.6264 289.898C59.8348 289.951 59.9901 290 60.0923 290.045L59.706 291.205C59.6378 291.182 59.5431 291.153 59.4219 291.119C59.3045 291.085 59.1491 291.068 58.956 291.068C58.5128 291.068 58.1927 291.18 57.9957 291.403C57.8026 291.627 57.706 291.955 57.706 292.386V302H56.3651ZM61.5398 302V293.273H62.8807V302H61.5398ZM62.2216 291.818C61.9602 291.818 61.7348 291.729 61.5455 291.551C61.3598 291.373 61.267 291.159 61.267 290.909C61.267 290.659 61.3598 290.445 61.5455 290.267C61.7348 290.089 61.9602 290 62.2216 290C62.483 290 62.7064 290.089 62.892 290.267C63.0814 290.445 63.1761 290.659 63.1761 290.909C63.1761 291.159 63.0814 291.373 62.892 291.551C62.7064 291.729 62.483 291.818 62.2216 291.818ZM65.3366 302V293.273H66.6321V294.591H66.723C66.8821 294.159 67.17 293.809 67.5866 293.54C68.0033 293.271 68.473 293.136 68.9957 293.136C69.0942 293.136 69.2173 293.138 69.3651 293.142C69.5128 293.146 69.6245 293.152 69.7003 293.159V294.523C69.6548 294.511 69.5507 294.494 69.3878 294.472C69.2287 294.445 69.0601 294.432 68.8821 294.432C68.4579 294.432 68.0791 294.521 67.7457 294.699C67.4162 294.873 67.1548 295.116 66.9616 295.426C66.7723 295.733 66.6776 296.083 66.6776 296.477V302H65.3366ZM71.2898 302V293.273H72.5852V294.636H72.6989C72.8807 294.17 73.1742 293.809 73.5795 293.551C73.9848 293.29 74.4716 293.159 75.0398 293.159C75.6155 293.159 76.0947 293.29 76.4773 293.551C76.8636 293.809 77.1648 294.17 77.3807 294.636H77.4716C77.6951 294.186 78.0303 293.828 78.4773 293.562C78.9242 293.294 79.4602 293.159 80.0852 293.159C80.8655 293.159 81.5038 293.403 82 293.892C82.4962 294.377 82.7443 295.133 82.7443 296.159V302H81.4034V296.159C81.4034 295.515 81.2273 295.055 80.875 294.778C80.5227 294.502 80.108 294.364 79.6307 294.364C79.017 294.364 78.5417 294.549 78.2045 294.92C77.8674 295.288 77.6989 295.754 77.6989 296.318V302H76.3352V296.023C76.3352 295.527 76.1742 295.127 75.8523 294.824C75.5303 294.517 75.1155 294.364 74.608 294.364C74.2595 294.364 73.9337 294.456 73.6307 294.642C73.3314 294.828 73.089 295.085 72.9034 295.415C72.7216 295.741 72.6307 296.117 72.6307 296.545V302H71.2898ZM89.8778 302V290.364H93.8097C94.7225 290.364 95.4688 290.528 96.0483 290.858C96.6316 291.184 97.0634 291.625 97.3438 292.182C97.6241 292.739 97.7642 293.36 97.7642 294.045C97.7642 294.731 97.6241 295.354 97.3438 295.915C97.0672 296.475 96.6392 296.922 96.0597 297.256C95.4801 297.585 94.7377 297.75 93.8324 297.75H91.0142V296.5H93.7869C94.4119 296.5 94.9138 296.392 95.2926 296.176C95.6714 295.96 95.946 295.669 96.1165 295.301C96.2907 294.93 96.3778 294.511 96.3778 294.045C96.3778 293.58 96.2907 293.163 96.1165 292.795C95.946 292.428 95.6695 292.14 95.2869 291.932C94.9044 291.72 94.3968 291.614 93.7642 291.614H91.2869V302H89.8778ZM102.42 302.205C101.867 302.205 101.366 302.1 100.915 301.892C100.464 301.68 100.106 301.375 99.8409 300.977C99.5758 300.576 99.4432 300.091 99.4432 299.523C99.4432 299.023 99.5417 298.617 99.7386 298.307C99.9356 297.992 100.199 297.746 100.528 297.568C100.858 297.39 101.222 297.258 101.619 297.17C102.021 297.08 102.424 297.008 102.83 296.955C103.36 296.886 103.79 296.835 104.119 296.801C104.453 296.763 104.695 296.701 104.847 296.614C105.002 296.527 105.08 296.375 105.08 296.159V296.114C105.08 295.553 104.926 295.117 104.619 294.807C104.316 294.496 103.856 294.341 103.239 294.341C102.598 294.341 102.097 294.481 101.733 294.761C101.369 295.042 101.114 295.341 100.966 295.659L99.6932 295.205C99.9205 294.674 100.223 294.261 100.602 293.966C100.985 293.667 101.402 293.458 101.852 293.341C102.307 293.22 102.754 293.159 103.193 293.159C103.473 293.159 103.795 293.193 104.159 293.261C104.527 293.326 104.881 293.46 105.222 293.665C105.566 293.869 105.852 294.178 106.08 294.591C106.307 295.004 106.42 295.557 106.42 296.25V302H105.08V300.818H105.011C104.92 301.008 104.769 301.21 104.557 301.426C104.345 301.642 104.063 301.826 103.71 301.977C103.358 302.129 102.928 302.205 102.42 302.205ZM102.625 301C103.155 301 103.602 300.896 103.966 300.688C104.333 300.479 104.61 300.21 104.795 299.881C104.985 299.551 105.08 299.205 105.08 298.841V297.614C105.023 297.682 104.898 297.744 104.705 297.801C104.515 297.854 104.295 297.902 104.045 297.943C103.799 297.981 103.559 298.015 103.324 298.045C103.093 298.072 102.905 298.095 102.761 298.114C102.413 298.159 102.087 298.233 101.784 298.335C101.485 298.434 101.242 298.583 101.057 298.784C100.875 298.981 100.784 299.25 100.784 299.591C100.784 300.057 100.956 300.409 101.301 300.648C101.65 300.883 102.091 301 102.625 301ZM115.05 295.227L113.845 295.568C113.769 295.367 113.658 295.172 113.51 294.983C113.366 294.79 113.169 294.631 112.919 294.506C112.669 294.381 112.349 294.318 111.959 294.318C111.425 294.318 110.98 294.441 110.624 294.688C110.271 294.93 110.095 295.239 110.095 295.614C110.095 295.947 110.216 296.21 110.459 296.403C110.701 296.597 111.08 296.758 111.595 296.886L112.891 297.205C113.671 297.394 114.252 297.684 114.635 298.074C115.018 298.46 115.209 298.958 115.209 299.568C115.209 300.068 115.065 300.515 114.777 300.909C114.493 301.303 114.095 301.614 113.584 301.841C113.072 302.068 112.478 302.182 111.8 302.182C110.91 302.182 110.173 301.989 109.589 301.602C109.006 301.216 108.637 300.652 108.482 299.909L109.754 299.591C109.875 300.061 110.105 300.413 110.442 300.648C110.783 300.883 111.228 301 111.777 301C112.402 301 112.898 300.867 113.266 300.602C113.637 300.333 113.822 300.011 113.822 299.636C113.822 299.333 113.716 299.08 113.504 298.875C113.292 298.667 112.966 298.511 112.527 298.409L111.072 298.068C110.273 297.879 109.686 297.585 109.311 297.188C108.94 296.786 108.754 296.284 108.754 295.682C108.754 295.189 108.893 294.754 109.169 294.375C109.449 293.996 109.83 293.699 110.311 293.483C110.796 293.267 111.345 293.159 111.959 293.159C112.822 293.159 113.5 293.348 113.993 293.727C114.489 294.106 114.841 294.606 115.05 295.227ZM123.409 295.227L122.205 295.568C122.129 295.367 122.017 295.172 121.869 294.983C121.725 294.79 121.528 294.631 121.278 294.506C121.028 294.381 120.708 294.318 120.318 294.318C119.784 294.318 119.339 294.441 118.983 294.688C118.631 294.93 118.455 295.239 118.455 295.614C118.455 295.947 118.576 296.21 118.818 296.403C119.061 296.597 119.439 296.758 119.955 296.886L121.25 297.205C122.03 297.394 122.612 297.684 122.994 298.074C123.377 298.46 123.568 298.958 123.568 299.568C123.568 300.068 123.424 300.515 123.136 300.909C122.852 301.303 122.455 301.614 121.943 301.841C121.432 302.068 120.837 302.182 120.159 302.182C119.269 302.182 118.532 301.989 117.949 301.602C117.366 301.216 116.996 300.652 116.841 299.909L118.114 299.591C118.235 300.061 118.464 300.413 118.801 300.648C119.142 300.883 119.587 301 120.136 301C120.761 301 121.258 300.867 121.625 300.602C121.996 300.333 122.182 300.011 122.182 299.636C122.182 299.333 122.076 299.08 121.864 298.875C121.652 298.667 121.326 298.511 120.886 298.409L119.432 298.068C118.633 297.879 118.045 297.585 117.67 297.188C117.299 296.786 117.114 296.284 117.114 295.682C117.114 295.189 117.252 294.754 117.528 294.375C117.809 293.996 118.189 293.699 118.67 293.483C119.155 293.267 119.705 293.159 120.318 293.159C121.182 293.159 121.86 293.348 122.352 293.727C122.848 294.106 123.201 294.606 123.409 295.227ZM127.564 302L124.905 293.273H126.314L128.2 299.955H128.291L130.155 293.273H131.587L133.428 299.932H133.518L135.405 293.273H136.814L134.155 302H132.837L130.928 295.295H130.791L128.882 302H127.564ZM141.835 302.182C141.047 302.182 140.356 301.994 139.761 301.619C139.17 301.244 138.708 300.72 138.375 300.045C138.045 299.371 137.881 298.583 137.881 297.682C137.881 296.773 138.045 295.979 138.375 295.301C138.708 294.623 139.17 294.097 139.761 293.722C140.356 293.347 141.047 293.159 141.835 293.159C142.623 293.159 143.313 293.347 143.903 293.722C144.498 294.097 144.96 294.623 145.29 295.301C145.623 295.979 145.79 296.773 145.79 297.682C145.79 298.583 145.623 299.371 145.29 300.045C144.96 300.72 144.498 301.244 143.903 301.619C143.313 301.994 142.623 302.182 141.835 302.182ZM141.835 300.977C142.434 300.977 142.926 300.824 143.312 300.517C143.699 300.21 143.985 299.807 144.17 299.307C144.356 298.807 144.449 298.265 144.449 297.682C144.449 297.098 144.356 296.555 144.17 296.051C143.985 295.547 143.699 295.14 143.312 294.83C142.926 294.519 142.434 294.364 141.835 294.364C141.237 294.364 140.744 294.519 140.358 294.83C139.972 295.14 139.686 295.547 139.5 296.051C139.314 296.555 139.222 297.098 139.222 297.682C139.222 298.265 139.314 298.807 139.5 299.307C139.686 299.807 139.972 300.21 140.358 300.517C140.744 300.824 141.237 300.977 141.835 300.977ZM147.837 302V293.273H149.132V294.591H149.223C149.382 294.159 149.67 293.809 150.087 293.54C150.503 293.271 150.973 293.136 151.496 293.136C151.594 293.136 151.717 293.138 151.865 293.142C152.013 293.146 152.125 293.152 152.2 293.159V294.523C152.155 294.511 152.051 294.494 151.888 294.472C151.729 294.445 151.56 294.432 151.382 294.432C150.958 294.432 150.579 294.521 150.246 294.699C149.916 294.873 149.655 295.116 149.462 295.426C149.272 295.733 149.178 296.083 149.178 296.477V302H147.837ZM156.82 302.182C156.092 302.182 155.45 301.998 154.893 301.631C154.337 301.259 153.901 300.737 153.587 300.062C153.272 299.384 153.115 298.583 153.115 297.659C153.115 296.742 153.272 295.947 153.587 295.273C153.901 294.598 154.339 294.078 154.899 293.71C155.46 293.343 156.107 293.159 156.842 293.159C157.411 293.159 157.859 293.254 158.189 293.443C158.522 293.629 158.776 293.841 158.95 294.08C159.128 294.314 159.267 294.508 159.365 294.659H159.479V290.364H160.82V302H159.524V300.659H159.365C159.267 300.818 159.126 301.019 158.945 301.261C158.763 301.5 158.503 301.714 158.166 301.903C157.829 302.089 157.38 302.182 156.82 302.182ZM157.001 300.977C157.539 300.977 157.994 300.837 158.365 300.557C158.736 300.273 159.018 299.881 159.212 299.381C159.405 298.877 159.501 298.295 159.501 297.636C159.501 296.985 159.407 296.415 159.217 295.926C159.028 295.434 158.748 295.051 158.376 294.778C158.005 294.502 157.547 294.364 157.001 294.364C156.433 294.364 155.96 294.509 155.581 294.801C155.206 295.089 154.924 295.481 154.734 295.977C154.549 296.47 154.456 297.023 154.456 297.636C154.456 298.258 154.551 298.822 154.74 299.33C154.933 299.833 155.217 300.235 155.592 300.534C155.971 300.83 156.441 300.977 157.001 300.977Z" fill="#1E1E1E"/>
<path d="M24 323C24 318.582 27.5817 315 32 315H288C292.418 315 296 318.582 296 323V347C296 351.418 292.418 355 288 355H32C27.5817 355 24 351.418 24 347V323Z" fill="white"/>
<path d="M32 315.5H288V314.5H32V315.5ZM295.5 323V347H296.5V323H295.5ZM288 354.5H32V355.5H288V354.5ZM24.5 347V323H23.5V347H24.5ZM32 354.5C27.8579 354.5 24.5 351.142 24.5 347H23.5C23.5 351.694 27.3056 355.5 32 355.5V354.5ZM295.5 347C295.5 351.142 292.142 354.5 288 354.5V355.5C292.694 355.5 296.5 351.694 296.5 347H295.5ZM288 315.5C292.142 315.5 295.5 318.858 295.5 323H296.5C296.5 318.306 292.694 314.5 288 314.5V315.5ZM32 314.5C27.3056 314.5 23.5 318.306 23.5 323H24.5C24.5 318.858 27.8579 315.5 32 315.5V314.5Z" fill="#D9D9D9"/>
</svg>
